<?xml version="1.0" encoding="utf-8"?>
<!-- Generator: Adobe Illustrator 26.0.0, SVG Export Plug-In . SVG Version: 6.00 Build 0)  -->
<svg version="1.1" id="图层_1" xmlns="http://www.w3.org/2000/svg" xmlns:xlink="http://www.w3.org/1999/xlink" x="0px" y="0px"
	 viewBox="0 0 2000 2000" style="enable-background:new 0 0 2000 2000;" xml:space="preserve">
<style type="text/css">
	.st0{fill:#FDA928;}
	.st1{fill:#FFFFFF;}
	.st2{fill:#1C56A4;}
	.st3{opacity:0.3;}
	.st4{fill:#3D9FFD;}
</style>
<g>
	<circle class="st0" cx="1649.68" cy="500.45" r="329.94"/>
	<g>
		<path class="st1" d="M1624.06,612.86h-39.33c-1.52,0-2.97-0.69-3.92-1.88l-84.71-105.5c-2.3-2.86-6.79-2.38-8.42,0.91
			l-51.62,103.69c-0.85,1.71-2.59,2.79-4.5,2.79h-37.34c-3.73,0-6.17-3.93-4.5-7.27l117.64-236.2c0.85-1.71,2.59-2.79,4.5-2.79
			h37.36c3.73,0,6.16,3.92,4.5,7.26l-40.67,81.97c-0.87,1.75-0.64,3.84,0.57,5.37l114.38,143.48
			C1630.62,607.99,1628.27,612.86,1624.06,612.86z"/>
		<path class="st1" d="M1588.18,595.59l-95.15-118.5c-2.3-2.86-6.79-2.38-8.42,0.91l-58.09,116.68c-0.85,1.71-2.59,2.79-4.5,2.79
			h-2.95c-3.73,0-6.17-3.93-4.5-7.27l102.31-205.41c0.85-1.71,2.59-2.79,4.5-2.79h3.01c3.73,0,6.16,3.92,4.5,7.26l-33.99,68.52
			c-0.87,1.75-0.64,3.84,0.57,5.37l100.57,126.16c2.63,3.29,0.28,8.16-3.93,8.16l0,0C1590.58,597.47,1589.14,596.78,1588.18,595.59z
			"/>
		<path class="st1" d="M1910.33,612.86H1871c-1.52,0-2.97-0.69-3.92-1.88l-84.71-105.5c-2.3-2.86-6.79-2.38-8.42,0.91l-51.62,103.69
			c-0.85,1.71-2.59,2.79-4.5,2.79h-37.34c-3.73,0-6.17-3.93-4.5-7.27l117.64-236.2c0.85-1.71,2.59-2.79,4.5-2.79h37.36
			c3.73,0,6.16,3.92,4.5,7.26l-40.67,81.97c-0.87,1.75-0.64,3.84,0.57,5.37l114.38,143.48
			C1916.89,607.99,1914.54,612.86,1910.33,612.86z"/>
		<path class="st1" d="M1874.46,595.59l-95.15-118.5c-2.3-2.86-6.79-2.38-8.42,0.91l-58.09,116.68c-0.85,1.71-2.59,2.79-4.5,2.79
			h-2.95c-3.73,0-6.17-3.93-4.5-7.27l102.31-205.41c0.85-1.71,2.59-2.79,4.5-2.79h3.01c3.73,0,6.16,3.92,4.5,7.26l-33.99,68.52
			c-0.87,1.75-0.64,3.84,0.57,5.37l100.57,126.16c2.63,3.29,0.28,8.16-3.93,8.16l0,0C1876.85,597.47,1875.41,596.78,1874.46,595.59z
			"/>
	</g>
</g>
<g>
	<path class="st2" d="M1718.2,985.48c-17-228.24-207.46-404.56-436.34-403.93c-20.87,0.07-41.72,1.74-62.33,4.98
		c-142.67-170.42-376.62-233.54-585.65-158.02C424.85,504.05,285.28,702.14,284.5,924.39v62.34
		C115.97,1051.17,4.47,1212.71,4,1393.15c0,115.73,45.97,226.71,127.8,308.54c81.83,81.83,192.82,127.8,308.54,127.8h1122.03
		c115.73,0,226.72-45.97,308.54-127.8c81.83-81.83,127.81-192.81,127.81-308.54C1998.75,1212.25,1887.17,1050.09,1718.2,985.48z"/>
	<g class="st3">
		<path class="st4" d="M633.88,428.52C424.85,504.05,285.28,702.14,284.5,924.39v62.34C115.97,1051.17,4.47,1212.71,4,1393.15
			c0,115.73,45.97,226.71,127.8,308.54c81.83,81.83,192.82,127.8,308.54,127.8h561.08V431.44
			C885.75,387.59,755.59,384.54,633.88,428.52z"/>
	</g>
</g>
</svg>
