<?xml version="1.0" encoding="utf-8"?>
<!-- Generator: Adobe Illustrator 26.0.0, SVG Export Plug-In . SVG Version: 6.00 Build 0)  -->
<svg version="1.1" id="图层_1" xmlns="http://www.w3.org/2000/svg" xmlns:xlink="http://www.w3.org/1999/xlink" x="0px" y="0px"
	 viewBox="0 0 2000 2000" style="enable-background:new 0 0 2000 2000;" xml:space="preserve">
<style type="text/css">
	.st0{fill:#FDA928;}
	.st1{fill:#FFFFFF;}
	.st2{fill:#1C56A4;}
	.st3{opacity:0.3;}
	.st4{fill:#3D9FFD;}
</style>
<g>
	<circle class="st0" cx="1416.73" cy="641.27" r="188.52"/>
	<g>
		<path class="st1" d="M1402.09,705.5h-22.47c-0.87,0-1.69-0.4-2.24-1.07l-48.4-60.28c-1.31-1.63-3.88-1.36-4.81,0.52l-29.5,59.24
			c-0.49,0.98-1.48,1.59-2.57,1.59h-21.34c-2.13,0-3.52-2.24-2.57-4.15l67.22-134.96c0.49-0.98,1.48-1.59,2.57-1.59h21.34
			c2.13,0,3.52,2.24,2.57,4.15l-23.24,46.84c-0.5,1-0.37,2.2,0.33,3.07l65.36,81.98C1405.84,702.72,1404.5,705.5,1402.09,705.5z"/>
		<path class="st1" d="M1381.59,695.63l-54.37-67.71c-1.31-1.63-3.88-1.36-4.81,0.52l-33.19,66.67c-0.49,0.98-1.48,1.59-2.57,1.59
			h-1.69c-2.13,0-3.52-2.24-2.57-4.15l58.46-117.37c0.49-0.98,1.48-1.59,2.57-1.59h1.72c2.13,0,3.52,2.24,2.57,4.15l-19.42,39.15
			c-0.5,1-0.37,2.2,0.33,3.07l57.47,72.09c1.5,1.88,0.16,4.66-2.25,4.66l0,0C1382.96,696.7,1382.14,696.31,1381.59,695.63z"/>
		<path class="st1" d="M1565.67,705.5h-22.47c-0.87,0-1.7-0.4-2.24-1.07l-48.4-60.28c-1.31-1.63-3.88-1.36-4.81,0.52l-29.5,59.24
			c-0.49,0.98-1.48,1.59-2.57,1.59h-21.34c-2.13,0-3.52-2.24-2.57-4.15l67.22-134.96c0.49-0.98,1.48-1.59,2.57-1.59h21.34
			c2.13,0,3.52,2.24,2.57,4.15l-23.24,46.84c-0.5,1-0.37,2.2,0.33,3.07l65.36,81.98C1569.41,702.72,1568.07,705.5,1565.67,705.5z"/>
		<path class="st1" d="M1545.17,695.63l-54.37-67.71c-1.31-1.63-3.88-1.36-4.81,0.52l-33.19,66.67c-0.49,0.98-1.48,1.59-2.57,1.59
			h-1.69c-2.13,0-3.52-2.24-2.57-4.15l58.46-117.37c0.49-0.98,1.48-1.59,2.57-1.59h1.72c2.13,0,3.52,2.24,2.57,4.15l-19.42,39.15
			c-0.5,1-0.37,2.2,0.33,3.07l57.47,72.09c1.5,1.88,0.16,4.66-2.25,4.66l0,0C1546.54,696.7,1545.71,696.31,1545.17,695.63z"/>
	</g>
</g>
<g>
	<path class="st2" d="M1453.6,918.41c-9.71-130.41-118.54-231.16-249.32-230.8c-11.93,0.04-23.84,0.99-35.62,2.85
		c-81.52-97.38-215.2-133.45-334.63-90.29C714.59,643.32,634.84,756.51,634.4,883.5v35.62c-96.3,36.82-160.01,129.12-160.28,232.23
		c0,66.12,26.27,129.54,73.02,176.3c46.76,46.76,110.18,73.02,176.3,73.02h641.11c66.12,0,129.54-26.27,176.3-73.02
		c46.76-46.76,73.03-110.17,73.03-176.3C1613.9,1047.98,1550.14,955.32,1453.6,918.41z"/>
	<g class="st3">
		<path class="st4" d="M834.03,600.17C714.59,643.32,634.84,756.51,634.4,883.5v35.62c-96.3,36.82-160.01,129.12-160.28,232.23
			c0,66.12,26.27,129.54,73.02,176.3c46.76,46.76,110.18,73.02,176.3,73.02h320.6V601.83C977.94,576.78,903.57,575.04,834.03,600.17
			z"/>
	</g>
</g>
</svg>
